<svg width="15" height="15" viewBox="0 0 15 15" fill="none" xmlns="http://www.w3.org/2000/svg">
<path id="Vector" d="M3.0075 10.602L1.60575 1.50011H0.75C0.551088 1.50011 0.360322 1.4211 0.21967 1.28045C0.0790176 1.1398 0 0.949031 0 0.750121C0 0.55121 0.0790176 0.360446 0.21967 0.219795C0.360322 0.0791439 0.551088 0.000126995 0.75 0.000126995H2.23875C2.41968 -0.00321328 2.59564 0.0594384 2.73375 0.176375C2.8755 0.295577 2.96797 0.463145 2.99325 0.646621L3.23925 2.25011H9V3.75009H3.47025L4.39275 9.75004H11.442L12.567 6.00008H14.133L12.7185 10.7153C12.6722 10.8698 12.5773 11.0054 12.4478 11.1017C12.3184 11.198 12.1613 11.25 12 11.25H3.762C3.57594 11.2535 3.39534 11.1871 3.25575 11.064C3.11971 10.9451 3.03202 10.781 3.0075 10.602ZM6 13.5C6 13.8978 5.84196 14.2794 5.56066 14.5607C5.27936 14.842 4.89782 15 4.5 15C4.10217 15 3.72064 14.842 3.43934 14.5607C3.15804 14.2794 3 13.8978 3 13.5C3 13.1022 3.15804 12.7207 3.43934 12.4394C3.72064 12.1581 4.10217 12 4.5 12C4.89782 12 5.27936 12.1581 5.56066 12.4394C5.84196 12.7207 6 13.1022 6 13.5ZM12.75 13.5C12.75 13.8978 12.592 14.2794 12.3107 14.5607C12.0294 14.842 11.6478 15 11.25 15C10.8522 15 10.4706 14.842 10.1893 14.5607C9.90804 14.2794 9.75 13.8978 9.75 13.5C9.75 13.1022 9.90804 12.7207 10.1893 12.4394C10.4706 12.1581 10.8522 12 11.25 12C11.6478 12 12.0294 12.1581 12.3107 12.4394C12.592 12.7207 12.75 13.1022 12.75 13.5ZM12.75 0.000126995C12.9489 0.000126995 13.1397 0.0791439 13.2803 0.219795C13.421 0.360446 13.5 0.55121 13.5 0.750121V1.50011H14.25C14.4489 1.50011 14.6397 1.57913 14.7803 1.71978C14.921 1.86043 15 2.0512 15 2.25011C15 2.44902 14.921 2.63978 14.7803 2.78043C14.6397 2.92108 14.4489 3.0001 14.25 3.0001H13.5V3.75009C13.5 3.94901 13.421 4.13977 13.2803 4.28042C13.1397 4.42107 12.9489 4.50009 12.75 4.50009C12.5511 4.50009 12.3603 4.42107 12.2197 4.28042C12.079 4.13977 12 3.94901 12 3.75009V3.0001H11.25C11.0511 3.0001 10.8603 2.92108 10.7197 2.78043C10.579 2.63978 10.5 2.44902 10.5 2.25011C10.5 2.0512 10.579 1.86043 10.7197 1.71978C10.8603 1.57913 11.0511 1.50011 11.25 1.50011H12V0.750121C12 0.55121 12.079 0.360446 12.2197 0.219795C12.3603 0.0791439 12.5511 0.000126995 12.75 0.000126995Z" fill="#6066FC"/>
</svg>
