<svg width="24" height="23" viewBox="0 0 24 23" fill="none" xmlns="http://www.w3.org/2000/svg">
<path d="M9.325 3.92683H13.925C13.925 3.33171 13.6827 2.76096 13.2513 2.34015C12.82 1.91934 12.235 1.68293 11.625 1.68293C11.015 1.68293 10.43 1.91934 9.99866 2.34015C9.56732 2.76096 9.325 3.33171 9.325 3.92683ZM7.6 3.92683C7.6 3.41115 7.70411 2.90052 7.90638 2.4241C8.10866 1.94767 8.40514 1.51478 8.7789 1.15014C9.15265 0.785502 9.59636 0.496254 10.0847 0.298912C10.573 0.10157 11.0964 0 11.625 0C12.1536 0 12.677 0.10157 13.1653 0.298912C13.6536 0.496254 14.0973 0.785502 14.4711 1.15014C14.8449 1.51478 15.1413 1.94767 15.3436 2.4241C15.5459 2.90052 15.65 3.41115 15.65 3.92683H22.2625C22.4912 3.92683 22.7106 4.01548 22.8724 4.17329C23.0341 4.33109 23.125 4.54512 23.125 4.76829C23.125 4.99146 23.0341 5.20549 22.8724 5.3633C22.7106 5.5211 22.4912 5.60976 22.2625 5.60976H20.7445L19.399 19.1977C19.2958 20.2389 18.7987 21.2052 18.0048 21.9081C17.2109 22.6111 16.1771 23.0004 15.1049 23H8.1451C7.07314 23.0001 6.03957 22.6107 5.24589 21.9078C4.45222 21.2048 3.95534 20.2387 3.85215 19.1977L2.5055 5.60976H0.9875C0.758751 5.60976 0.53937 5.5211 0.37762 5.3633C0.21587 5.20549 0.125 4.99146 0.125 4.76829C0.125 4.54512 0.21587 4.33109 0.37762 4.17329C0.53937 4.01548 0.758751 3.92683 0.9875 3.92683H7.6ZM9.9 9.2561C9.9 9.03293 9.80913 8.8189 9.64738 8.66109C9.48563 8.50329 9.26625 8.41463 9.0375 8.41463C8.80875 8.41463 8.58937 8.50329 8.42762 8.66109C8.26587 8.8189 8.175 9.03293 8.175 9.2561V17.6707C8.175 17.8939 8.26587 18.1079 8.42762 18.2657C8.58937 18.4235 8.80875 18.5122 9.0375 18.5122C9.26625 18.5122 9.48563 18.4235 9.64738 18.2657C9.80913 18.1079 9.9 17.8939 9.9 17.6707V9.2561ZM14.2125 8.41463C14.4412 8.41463 14.6606 8.50329 14.8224 8.66109C14.9841 8.8189 15.075 9.03293 15.075 9.2561V17.6707C15.075 17.8939 14.9841 18.1079 14.8224 18.2657C14.6606 18.4235 14.4412 18.5122 14.2125 18.5122C13.9838 18.5122 13.7644 18.4235 13.6026 18.2657C13.4409 18.1079 13.35 17.8939 13.35 17.6707V9.2561C13.35 9.03293 13.4409 8.8189 13.6026 8.66109C13.7644 8.50329 13.9838 8.41463 14.2125 8.41463ZM5.5691 19.0361C5.63113 19.6607 5.92933 20.2403 6.40557 20.662C6.88182 21.0837 7.50196 21.3172 8.1451 21.3171H15.1049C15.748 21.3172 16.3682 21.0837 16.8444 20.662C17.3207 20.2403 17.6189 19.6607 17.6809 19.0361L19.0126 5.60976H4.2374L5.5691 19.0361Z" fill="#FD5E55"/>
</svg>
