<svg width="306" height="203" viewBox="0 0 306 203" fill="none" xmlns="http://www.w3.org/2000/svg">
<g clip-path="url(#clip0_164_1129)">
<path d="M109.762 116.828C120.249 98.4136 140.253 84.2742 161.428 85.6363C145.808 102.592 136.7 124.516 135.715 147.53C135.367 156.407 135.907 166.317 130.002 172.964C126.328 177.099 120.713 179.102 115.192 179.523C109.67 179.943 104.15 178.947 98.7023 177.955L97.3808 178.36C96.8777 157.184 99.2756 135.243 109.762 116.828Z" fill="#F0F0F0"/>
<path d="M161.459 86.0796C145.801 93.6046 132.448 106.172 124.252 121.499C122.48 124.813 120.971 128.328 120.313 132.045C119.655 135.764 120.115 139.303 121.387 142.835C122.55 146.064 124.114 149.232 124.471 152.687C124.847 156.329 123.505 159.734 121.089 162.436C118.132 165.742 114.162 167.791 110.21 169.66C105.822 171.735 101.231 173.821 98.1234 177.694C97.7468 178.163 97.0394 177.553 97.4154 177.084C102.823 170.346 112.079 169.079 118.498 163.651C121.493 161.119 123.741 157.67 123.599 153.628C123.475 150.094 121.865 146.826 120.659 143.566C119.392 140.144 118.761 136.704 119.215 133.055C119.68 129.323 121.054 125.741 122.733 122.397C126.521 114.855 131.704 107.93 137.642 101.944C144.466 95.0639 152.419 89.3995 161.157 85.1962C161.698 84.9363 161.997 85.8214 161.459 86.0796Z" fill="white"/>
<path d="M126.653 116.377C124.252 114.625 122.554 112.078 121.861 109.191C121.168 106.304 121.525 103.265 122.87 100.617C123.143 100.082 123.989 100.482 123.715 101.017C122.458 103.481 122.126 106.312 122.776 108.999C123.427 111.685 125.019 114.052 127.264 115.67C127.751 116.022 127.138 116.727 126.653 116.377Z" fill="white"/>
<path d="M120.581 141.276C126.596 140.398 132.059 137.29 135.881 132.57C136.259 132.102 136.966 132.713 136.589 133.18C132.603 138.084 126.911 141.307 120.65 142.207C120.053 142.292 119.987 141.36 120.581 141.276Z" fill="white"/>
<path d="M144.928 96.2127C145.715 97.0839 146.707 97.7462 147.814 98.1402C148.921 98.5342 150.109 98.6475 151.271 98.4701C151.866 98.3773 151.931 99.3089 151.339 99.4011C150.055 99.5913 148.743 99.4645 147.519 99.0319C146.295 98.5993 145.195 97.874 144.317 96.9194C144.226 96.8364 144.171 96.7221 144.162 96.5998C144.153 96.4775 144.191 96.3564 144.268 96.261C144.35 96.1679 144.465 96.1105 144.588 96.1015C144.712 96.0924 144.834 96.1324 144.928 96.2127Z" fill="white"/>
<path d="M203.561 143.728C203.19 143.796 202.82 143.865 202.447 143.941C197.474 144.887 192.588 146.236 187.834 147.973C187.464 148.101 187.092 148.237 186.727 148.376C175.319 152.682 164.812 159.065 155.739 167.2C152.131 170.441 148.776 173.951 145.702 177.699C141.457 182.877 137.267 188.827 131.72 192.203C131.145 192.562 130.549 192.885 129.934 193.17L97.9782 179.938C97.9207 179.872 97.8598 179.812 97.802 179.746L96.5019 179.276C96.6469 179.071 96.8017 178.862 96.9467 178.658C97.0304 178.539 97.1211 178.423 97.2047 178.304C97.2627 178.226 97.3211 178.148 97.369 178.074C97.3882 178.048 97.4077 178.022 97.4239 178.003C97.4718 177.929 97.5241 177.865 97.5689 177.798C98.431 176.628 99.3028 175.462 100.184 174.301C100.187 174.293 100.187 174.293 100.198 174.289C106.937 165.453 114.475 157.101 123.043 150.156C123.301 149.948 123.561 149.731 123.834 149.529C127.713 146.42 131.841 143.633 136.175 141.195C138.553 139.868 140.996 138.662 143.496 137.581C149.96 134.802 156.823 133.055 163.831 132.404C177.802 131.109 192.033 134.289 202.749 143.05C203.022 143.275 203.29 143.496 203.561 143.728Z" fill="#F0F0F0"/>
<path d="M203.321 144.103C186.279 140.7 168.038 142.71 152.25 150.021C148.836 151.602 145.511 153.502 142.744 156.074C139.976 158.648 138.208 161.751 137.094 165.335C136.075 168.612 135.413 172.082 133.614 175.055C131.718 178.189 128.593 180.101 125.034 180.806C120.679 181.669 116.274 180.919 111.991 180.036C107.236 179.056 102.312 177.962 97.4946 179.187C96.9109 179.335 96.7144 178.422 97.2972 178.274C105.679 176.144 113.833 180.696 122.232 180.219C126.151 179.997 130.026 178.595 132.351 175.282C134.383 172.386 135.069 168.809 136.071 165.481C137.124 161.988 138.695 158.861 141.258 156.221C143.88 153.52 147.138 151.486 150.496 149.825C158.069 146.08 166.384 143.666 174.735 142.455C184.333 141.063 194.1 141.32 203.612 143.216C204.2 143.333 203.905 144.22 203.321 144.103Z" fill="white"/>
<path d="M157.256 147.374C156.396 144.533 156.576 141.478 157.764 138.757C158.952 136.035 161.07 133.824 163.741 132.517C164.282 132.255 164.716 133.082 164.174 133.345C161.685 134.557 159.712 136.617 158.611 139.154C157.51 141.69 157.354 144.536 158.17 147.178C158.347 147.752 157.432 147.945 157.256 147.374Z" fill="white"/>
<path d="M137.391 163.606C142.723 166.52 148.96 167.322 154.857 165.85C155.442 165.704 155.638 166.617 155.055 166.763C148.915 168.283 142.426 167.436 136.884 164.39C136.356 164.1 136.866 163.317 137.391 163.606Z" fill="white"/>
<path d="M184.009 142.258C184.113 143.427 184.505 144.552 185.151 145.532C185.798 146.512 186.678 147.316 187.712 147.873C188.244 148.156 187.734 148.939 187.206 148.657C186.065 148.037 185.094 147.147 184.378 146.066C183.661 144.985 183.221 143.745 183.095 142.455C183.073 142.334 183.098 142.21 183.165 142.107C183.231 142.004 183.334 141.93 183.454 141.9C183.575 141.875 183.701 141.898 183.805 141.965C183.909 142.032 183.983 142.137 184.009 142.258Z" fill="white"/>
<path d="M142.687 165.557C138.212 143.956 132.618 136.755 132.618 136.755L130.481 135.1L127.911 133.107L127.923 132.851L127.313 132.644L127.17 132.533L126.936 132.354L126.898 132.394L126.818 132.476L115.188 128.53L100.434 123.527L93.602 114.663C92.4893 113.219 91.0567 112.052 89.4166 111.253C87.7765 110.455 85.9734 110.046 84.1486 110.06L62.3289 110.221C59.3786 110.243 56.5432 111.365 54.3801 113.368L40.0383 126.648L17.691 137.302L17.6533 137.264L17.4187 137.432L13.9658 139.08L14.1083 139.82L11.9712 141.359C11.9712 141.359 6.37705 148.061 1.90173 168.16C0.763255 173.274 0.202857 184.245 0.00058369 197.763C-0.00957649 198.447 0.116557 199.126 0.371648 199.761C0.626739 200.396 1.0057 200.974 1.48649 201.461C1.96729 201.948 2.54032 202.335 3.17228 202.599C3.80424 202.864 4.48251 203 5.16766 203H124.529L139.427 203C140.111 203 140.789 202.864 141.421 202.6C142.052 202.336 142.625 201.949 143.106 201.462C143.586 200.976 143.965 200.399 144.221 199.765C144.476 199.13 144.603 198.452 144.594 197.769C144.396 183.058 143.836 171.103 142.687 165.557Z" fill="#3F3D56"/>
<path d="M158.002 18.8376C153.358 18.8376 148.904 20.6792 145.621 23.9571C142.337 27.235 140.492 31.6808 140.492 36.3164C140.492 40.9521 142.337 45.3979 145.621 48.6758C148.904 51.9537 153.358 53.7952 158.002 53.7952H288.49C293.134 53.7952 297.588 51.9537 300.871 48.6758C304.155 45.3979 306 40.9521 306 36.3164C306 31.6808 304.155 27.235 300.871 23.9571C297.588 20.6792 293.134 18.8376 288.49 18.8376H158.002Z" fill="#E5E5E5"/>
<path d="M158.002 22.375C154.298 22.375 150.745 23.8438 148.126 26.4583C145.507 29.0729 144.036 32.6189 144.036 36.3164C144.036 40.0139 145.507 43.56 148.126 46.1745C150.745 48.789 154.298 50.2579 158.002 50.2579H288.49C292.194 50.2579 295.747 48.789 298.366 46.1745C300.985 43.56 302.456 40.0139 302.456 36.3164C302.456 32.6189 300.985 29.0729 298.366 26.4583C295.747 23.8438 292.194 22.375 288.49 22.375H158.002Z" fill="white"/>
<path d="M76.6654 101.877C92.453 101.877 105.251 89.1011 105.251 73.3413C105.251 57.5815 92.453 44.8057 76.6654 44.8057C60.8777 44.8057 48.0793 57.5815 48.0793 73.3413C48.0793 89.1011 60.8777 101.877 76.6654 101.877Z" fill="#F3BD8F"/>
<path d="M69.3525 100.48C69.2304 100.211 69.1086 99.9419 68.9871 99.6716C69.0339 99.6731 69.0803 99.6798 69.1271 99.6811L69.3525 100.48Z" fill="#2F2E41"/>
<path d="M47.2844 46.1033C48.7302 44.952 50.42 43.8927 52.2685 43.9522C54.117 44.0117 55.9915 45.6783 55.6085 47.4845C59.0038 41.4834 64.4081 36.8678 70.8728 34.448C77.3375 32.0282 84.4495 31.9587 90.9604 34.2518C95.5547 35.8699 100.06 39.1069 101.115 43.8546C101.386 45.0734 101.445 46.4098 102.207 47.3994C103.168 48.6472 105.007 48.9295 106.521 48.4905C106.536 48.4861 106.551 48.4817 106.567 48.4772C106.822 48.39 107.099 48.3814 107.359 48.4526C107.62 48.5238 107.853 48.6714 108.029 48.8764C108.205 49.0814 108.315 49.3343 108.345 49.6024C108.375 49.8706 108.324 50.1416 108.199 50.3805L106.899 52.8006C108.537 53.1652 110.24 53.129 111.862 52.6952C112.131 52.6247 112.416 52.6391 112.677 52.7364C112.937 52.8338 113.162 53.0093 113.319 53.239C113.476 53.4686 113.558 53.7411 113.553 54.0191C113.549 54.297 113.459 54.5669 113.295 54.7916C109.008 60.6662 101.847 64.4597 94.5392 64.4151C89.3453 64.3835 84.0979 62.5966 79.043 63.7889C77.0875 64.2501 75.2602 65.1426 73.6952 66.4007C72.1303 67.6589 70.8674 69.2508 69.9991 71.0598C69.1309 72.8687 68.6794 74.8487 68.6777 76.8546C68.676 78.8604 69.1243 80.8412 69.9895 82.6515C68.4366 80.956 65.4347 81.3574 63.8462 83.0199C62.2578 84.6823 61.8466 87.1636 62.0067 89.4554C62.2514 92.9607 63.6272 96.2636 65.0776 99.4783C52.9174 99.0961 41.4159 90.581 37.5445 79.064C33.6568 67.4989 37.7312 53.7108 47.2844 46.1033Z" fill="#2F2E41"/>
<path opacity="0.2" d="M28.136 159.036L36.1537 202.582L40.9646 203L28.136 159.036Z" fill="black"/>
<path opacity="0.2" d="M116.453 155.752L108.435 202.55L103.624 203L116.453 155.752Z" fill="black"/>
<path d="M54.1229 31.448C52.5856 32.0888 50.9815 31.3865 50.3088 29.7783C49.6258 28.1455 50.2637 26.4879 51.8256 25.8369C53.3877 25.1858 54.9632 25.8897 55.6572 27.5489C56.3409 29.1831 55.7099 30.7865 54.1229 31.448ZM51.1781 22.6229L49.9558 23.1325C49.6504 23.2582 49.3089 23.265 48.9988 23.1515C48.6887 23.0379 48.4325 22.8123 48.281 22.5193L48.2206 22.4012C46.9054 20.0335 46.7548 17.1558 47.7754 13.8527C48.7208 10.8896 49.1135 8.80572 48.3238 6.9178C47.4107 4.73502 45.461 4.05125 42.9747 5.04176C42.0103 5.44372 41.7035 5.43731 40.9446 6.1888C40.7795 6.35425 40.5828 6.48483 40.3661 6.57274C40.1493 6.66065 39.9171 6.70409 39.6832 6.70048C39.4571 6.69783 39.2338 6.64974 39.0267 6.5591C38.8196 6.46845 38.6329 6.3371 38.4778 6.17288C38.1789 5.85641 38.0114 5.4385 38.0092 5.00355C38.007 4.56861 38.1703 4.14903 38.4659 3.82956C39.7415 2.49667 41.28 1.44218 42.9843 0.732642C48.3264 -1.4941 51.0156 1.79336 52.2462 4.73533C53.4499 7.61292 52.7728 10.2828 51.6849 13.7406C50.7732 16.6139 50.8263 18.7429 51.8619 20.8598C51.9367 21.0198 51.9783 21.1933 51.9842 21.3698C51.9902 21.5463 51.9603 21.7222 51.8964 21.8868C51.8326 22.0515 51.736 22.2016 51.6126 22.3281C51.4891 22.4546 51.3413 22.5549 51.1781 22.6229Z" fill="#6C63FF"/>
<path d="M186.825 44.6527H160.863C160.78 44.6532 160.698 44.6375 160.622 44.6064C160.546 44.5753 160.476 44.5294 160.418 44.4713C160.359 44.4133 160.313 44.3443 160.281 44.2683C160.249 44.1923 160.233 44.1108 160.233 44.0284C160.233 43.9461 160.249 43.8646 160.281 43.7886C160.313 43.7125 160.359 43.6435 160.418 43.5855C160.476 43.5275 160.546 43.4816 160.622 43.4505C160.698 43.4194 160.78 43.4036 160.863 43.4042H186.825C186.99 43.4053 187.148 43.4716 187.264 43.5885C187.381 43.7055 187.446 43.8636 187.446 44.0284C187.446 44.1933 187.381 44.3514 187.264 44.4683C187.148 44.5853 186.99 44.6516 186.825 44.6527Z" fill="#6C63FF"/>
<path d="M219.76 44.8607H193.797C193.715 44.8612 193.633 44.8455 193.557 44.8144C193.48 44.7833 193.411 44.7374 193.352 44.6794C193.294 44.6213 193.248 44.5523 193.216 44.4763C193.184 44.4003 193.168 44.3188 193.168 44.2364C193.168 44.1541 193.184 44.0726 193.216 43.9966C193.248 43.9206 193.294 43.8515 193.352 43.7935C193.411 43.7355 193.48 43.6896 193.557 43.6585C193.633 43.6274 193.715 43.6116 193.797 43.6122H219.76C219.842 43.6116 219.924 43.6274 220 43.6585C220.077 43.6896 220.146 43.7355 220.205 43.7935C220.263 43.8515 220.31 43.9206 220.341 43.9966C220.373 44.0726 220.389 44.1541 220.389 44.2364C220.389 44.3188 220.373 44.4003 220.341 44.4763C220.31 44.5523 220.263 44.6213 220.205 44.6794C220.146 44.7374 220.077 44.7833 220 44.8144C219.924 44.8455 219.842 44.8612 219.76 44.8607Z" fill="#6C63FF"/>
<path d="M252.695 45.0688H226.732C226.567 45.0677 226.409 45.0014 226.293 44.8845C226.176 44.7675 226.111 44.6094 226.111 44.4446C226.111 44.2797 226.176 44.1216 226.293 44.0047C226.409 43.8877 226.567 43.8214 226.732 43.8203H252.695C252.777 43.8198 252.859 43.8355 252.935 43.8666C253.012 43.8977 253.081 43.9436 253.14 44.0017C253.198 44.0597 253.245 44.1287 253.276 44.2047C253.308 44.2807 253.324 44.3622 253.324 44.4446C253.324 44.5269 253.308 44.6084 253.276 44.6844C253.245 44.7605 253.198 44.8295 253.14 44.8875C253.081 44.9455 253.012 44.9914 252.935 45.0225C252.859 45.0536 252.777 45.0694 252.695 45.0688Z" fill="#6C63FF"/>
<path d="M285.629 45.2768H259.667C259.502 45.2757 259.344 45.2094 259.228 45.0925C259.111 44.9755 259.046 44.8174 259.046 44.6526C259.046 44.4877 259.111 44.3296 259.228 44.2126C259.344 44.0957 259.502 44.0294 259.667 44.0283H285.629C285.795 44.0294 285.953 44.0957 286.069 44.2126C286.185 44.3296 286.251 44.4877 286.251 44.6526C286.251 44.8174 286.185 44.9755 286.069 45.0925C285.953 45.2094 285.795 45.2757 285.629 45.2768Z" fill="#6C63FF"/>
<path d="M173.787 38.9077C176.452 38.9077 178.612 36.7511 178.612 34.0908C178.612 31.4306 176.452 29.274 173.787 29.274C171.122 29.274 168.961 31.4306 168.961 34.0908C168.961 36.7511 171.122 38.9077 173.787 38.9077Z" fill="#6C63FF"/>
<path d="M206.92 38.9077C209.585 38.9077 211.746 36.7511 211.746 34.0908C211.746 31.4306 209.585 29.274 206.92 29.274C204.255 29.274 202.095 31.4306 202.095 34.0908C202.095 36.7511 204.255 38.9077 206.92 38.9077Z" fill="#6C63FF"/>
<path d="M240.054 38.9077C242.719 38.9077 244.879 36.7511 244.879 34.0908C244.879 31.4306 242.719 29.274 240.054 29.274C237.389 29.274 235.229 31.4306 235.229 34.0908C235.229 36.7511 237.389 38.9077 240.054 38.9077Z" fill="#6C63FF"/>
<path d="M273.188 38.9077C275.853 38.9077 278.013 36.7511 278.013 34.0908C278.013 31.4306 275.853 29.274 273.188 29.274C270.523 29.274 268.363 31.4306 268.363 34.0908C268.363 36.7511 270.523 38.9077 273.188 38.9077Z" fill="#6C63FF"/>
</g>
<defs>
<clipPath id="clip0_164_1129">
<rect width="306" height="203" fill="white"/>
</clipPath>
</defs>
</svg>
