<svg width="38" height="38" viewBox="0 0 38 38" fill="none" xmlns="http://www.w3.org/2000/svg">
<path d="M11 11.27L12.28 10L29 26.72L27.73 28L24.65 24.92C23.5 25.3 22.28 25.5 21 25.5C16 25.5 11.73 22.39 10 18C10.69 16.24 11.79 14.69 13.19 13.46L11 11.27ZM21 15C21.7956 15 22.5587 15.3161 23.1213 15.8787C23.6839 16.4413 24 17.2044 24 18C24.0005 18.3406 23.943 18.6787 23.83 19L20 15.17C20.3213 15.057 20.6594 14.9995 21 15ZM21 10.5C26 10.5 30.27 13.61 32 18C31.1839 20.0732 29.7969 21.8727 28 23.19L26.58 21.76C27.9629 20.8034 29.0782 19.5091 29.82 18C29.0116 16.3499 27.7564 14.9598 26.1973 13.9875C24.6381 13.0152 22.8375 12.4999 21 12.5C19.91 12.5 18.84 12.68 17.84 13L16.3 11.47C17.74 10.85 19.33 10.5 21 10.5ZM12.18 18C12.9884 19.6501 14.2436 21.0402 15.8027 22.0125C17.3619 22.9848 19.1625 23.5001 21 23.5C21.69 23.5 22.37 23.43 23 23.29L20.72 21C20.0242 20.9254 19.3748 20.6149 18.88 20.12C18.3851 19.6252 18.0746 18.9758 18 18.28L14.6 14.87C13.61 15.72 12.78 16.78 12.18 18Z" fill="#4F4F4E"/>
</svg>
