<svg width="30" height="30" viewBox="0 0 30 30" fill="none" xmlns="http://www.w3.org/2000/svg">
<path d="M15 29.25C22.8701 29.25 29.25 22.8701 29.25 15C29.25 7.12994 22.8701 0.75 15 0.75C7.12994 0.75 0.75 7.12994 0.75 15C0.75 22.8701 7.12994 29.25 15 29.25Z" fill="white" stroke="#8FA1FF" stroke-width="0.5"/>
<path fill-rule="evenodd" clip-rule="evenodd" d="M13.4383 9.97516C11.8814 8.38287 9.3194 8.38287 7.7625 9.97516C6.2543 11.5176 6.2543 13.9823 7.7625 15.5248L14.8617 22.7853C14.9378 22.8632 15.063 22.8632 15.1391 22.7853L22.2383 15.5248C23.7465 13.9823 23.7465 11.5176 22.2383 9.97516C20.6814 8.38287 18.1194 8.38287 16.5625 9.97516L15.5366 11.0243C15.3955 11.1686 15.2022 11.25 15.0004 11.25C14.7986 11.25 14.6052 11.1686 14.4641 11.0243L13.4383 9.97516ZM23.3108 8.92648C25.389 11.0519 25.389 14.4481 23.3108 16.5735L16.2116 23.834C15.5471 24.5136 14.4537 24.5136 13.7892 23.834L6.68999 16.5735C4.6118 14.4481 4.6118 11.0519 6.68999 8.92648C8.83528 6.73243 12.3655 6.73243 14.5108 8.92648L15.0004 9.42721L15.49 8.92649C17.6353 6.73243 21.1655 6.73243 23.3108 8.92648Z" fill="#6066FC"/>
</svg>
