<svg width="22" height="22" viewBox="0 0 22 22" fill="none" xmlns="http://www.w3.org/2000/svg">
<path d="M11 21.25C16.6609 21.25 21.25 16.6609 21.25 11C21.25 5.33908 16.6609 0.75 11 0.75C5.33908 0.75 0.75 5.33908 0.75 11C0.75 16.6609 5.33908 21.25 11 21.25Z" fill="white" stroke="#8FA1FF" stroke-width="0.5"/>
<path fill-rule="evenodd" clip-rule="evenodd" d="M15.6468 7.82487C14.7069 6.86364 13.1603 6.86364 12.2204 7.82486L11.5365 8.52431C11.3954 8.66862 11.2021 8.74997 11.0003 8.74997C10.7984 8.74997 10.6051 8.66862 10.464 8.52431L9.7801 7.82486C8.84024 6.86364 7.29362 6.86364 6.35375 7.82487C5.44328 8.75603 5.44328 10.2439 6.35375 11.1751L11.0003 15.9272L15.6468 11.1751C16.5572 10.2439 16.5572 8.75603 15.6468 7.82487ZM16.7193 6.77619C15.191 5.21319 12.6762 5.21319 11.1479 6.77619L11.0003 6.92719L10.8526 6.77619C9.32435 5.21319 6.8095 5.21319 5.28124 6.77619C3.80079 8.29029 3.80078 10.7097 5.28124 12.2238L10.014 17.0641C10.5551 17.6175 11.4454 17.6175 11.9865 17.0641L16.7193 12.2238C18.1997 10.7097 18.1997 8.29029 16.7193 6.77619Z" fill="#6066FC"/>
</svg>
