<svg width="32" height="31" viewBox="0 0 32 31" fill="none" xmlns="http://www.w3.org/2000/svg">
<rect x="0.862305" width="31" height="31" rx="15.5" fill="#6066FC"/>
<path fill-rule="evenodd" clip-rule="evenodd" d="M15.5288 14.6667V7.99999C15.5288 7.53975 15.9019 7.16666 16.3621 7.16666C16.8224 7.16666 17.1955 7.53975 17.1955 7.99999V14.6667H23.8621C24.3224 14.6667 24.6955 15.0398 24.6955 15.5C24.6955 15.9602 24.3224 16.3333 23.8621 16.3333H17.1955V23C17.1955 23.4602 16.8224 23.8333 16.3621 23.8333C15.9019 23.8333 15.5288 23.4602 15.5288 23V16.3333H8.86214C8.4019 16.3333 8.02881 15.9602 8.02881 15.5C8.02881 15.0398 8.4019 14.6667 8.86214 14.6667H15.5288Z" fill="white"/>
</svg>
