<svg width="25" height="25" viewBox="0 0 25 25" fill="none" xmlns="http://www.w3.org/2000/svg">
<path id="Vector" d="M25 12.4869C25 12.1978 24.859 11.9437 24.6444 11.7842L24.6489 11.7764L21.6261 10.0178L23.3661 6.98096L23.3602 6.97737C23.4152 6.85221 23.4401 6.71575 23.433 6.57908C23.4258 6.4424 23.3868 6.30935 23.3191 6.19071C23.2508 6.07218 23.1558 5.97153 23.0418 5.89694C22.9277 5.82236 22.7978 5.77593 22.6626 5.76144V5.75295H19.1717V2.24532H19.1646C19.15 2.10923 19.1039 1.97851 19.0299 1.86375C18.9559 1.74898 18.8561 1.6534 18.7386 1.58476C18.6207 1.51631 18.4884 1.47693 18.3525 1.46983C18.2166 1.46273 18.0809 1.48812 17.9566 1.54392L17.9524 1.53641L14.8788 3.32469L13.1767 0.353801L13.1706 0.357395C13.0905 0.246887 12.9856 0.156946 12.8646 0.0948549C12.7436 0.0327642 12.6097 0.000268971 12.4739 0C12.187 0 11.9344 0.142108 11.7766 0.358375L11.7688 0.353801L10.0386 3.37369L7.05926 1.64029L7.0557 1.6465C6.93149 1.59112 6.79608 1.56601 6.66045 1.57322C6.52482 1.58043 6.39278 1.61975 6.27504 1.68799C6.15734 1.75668 6.05739 1.85239 5.98331 1.96734C5.90923 2.08229 5.86312 2.21324 5.84873 2.34953H5.83998V5.83658H2.39966V5.84344C2.26462 5.85808 2.1349 5.90457 2.02101 5.97915C1.90712 6.05373 1.81227 6.1543 1.74415 6.2727C1.6764 6.39146 1.6374 6.52464 1.6303 6.66144C1.6232 6.79824 1.64821 6.93479 1.7033 7.06002L1.69584 7.06459L3.39655 10.0332L0.351099 11.8051L0.354665 11.8113C0.245001 11.8921 0.155747 11.9977 0.0941307 12.1197C0.0325143 12.2417 0.000266916 12.3765 0 12.5134C0 12.8025 0.141023 13.057 0.355638 13.2161L0.351099 13.2239L3.37386 14.9825L1.63392 18.0194L1.63976 18.0226C1.5848 18.1478 1.55989 18.2842 1.56704 18.4209C1.57419 18.5576 1.61321 18.6907 1.68093 18.8093C1.74915 18.9278 1.84415 19.0285 1.95822 19.1031C2.07229 19.1776 2.2022 19.2241 2.33742 19.2386V19.2474H5.82798V22.7547H5.83512C5.86494 23.0213 6.0131 23.2708 6.2611 23.4152C6.37904 23.4836 6.51134 23.523 6.64722 23.5301C6.78311 23.5371 6.91873 23.5118 7.04305 23.4561L7.04727 23.4636L10.1209 21.6753L11.8229 24.6462L11.8291 24.6426C11.9092 24.7531 12.014 24.8431 12.1351 24.9051C12.2561 24.9672 12.39 24.9997 12.5258 25C12.8127 25 13.0652 24.8579 13.2231 24.642L13.2306 24.6462L14.9608 21.6263L17.9404 23.3597L17.944 23.3535C18.0682 23.4089 18.2036 23.434 18.3392 23.4268C18.4749 23.4196 18.6069 23.3803 18.7246 23.312C18.8424 23.2434 18.9424 23.1477 19.0164 23.0327C19.0905 22.9177 19.1366 22.7868 19.1509 22.6505H19.1597V19.1637H22.6003V19.1569C22.7354 19.1422 22.8651 19.0958 22.979 19.0212C23.0929 18.9466 23.1877 18.846 23.2559 18.7276C23.3236 18.6089 23.3626 18.4757 23.3697 18.3389C23.3768 18.2021 23.3518 18.0655 23.2967 17.9403L23.3042 17.9361L21.6035 14.9675L24.6489 13.1955L24.6453 13.1893C24.755 13.1085 24.8443 13.0028 24.9059 12.8808C24.9675 12.7588 24.9997 12.6238 25 12.4869ZM8.45944 17.4647C7.7365 17.8854 7.08098 17.9429 6.5237 17.792L6.60183 16.9109C7.02392 17.0341 7.56954 17.0334 8.085 16.7332C8.52817 16.4754 8.62251 16.1566 8.4964 15.9367C8.12066 15.2814 6.22966 16.9919 5.41691 15.5738C5.05771 14.9466 5.29793 14.1132 6.17876 13.6009C6.773 13.255 7.37016 13.1491 7.93782 13.2782L7.83765 14.1351C7.37308 14.0292 6.8949 14.1338 6.51365 14.3553C6.17714 14.5513 6.07048 14.809 6.20016 15.0354C6.54023 15.6287 8.45815 13.9783 9.26409 15.3846C9.65928 16.0736 9.46379 16.8809 8.45944 17.4647ZM12.9796 14.7447L12.3786 14.2432L10.7748 15.1762L10.9048 15.9518L10.0019 16.4768L9.28386 11.8695L10.282 11.289L13.8825 14.2197L12.9796 14.7447ZM14.1963 14.0371L12.0369 10.2678L12.8389 9.80092L14.5938 12.8636L16.1752 11.9437L16.5801 12.6503L14.1963 14.0371ZM17.1179 12.3373L14.9585 8.56833L17.6052 7.028L18.0098 7.7343L16.1596 8.81106L16.6129 9.60229L18.4238 8.5484L18.8284 9.2547L17.0174 10.3083L17.5096 11.1674L19.36 10.0907L19.765 10.797L17.1179 12.3373Z" fill="#FF3B30"/>
</svg>
