<svg width="38" height="38" viewBox="0 0 38 38" fill="none" xmlns="http://www.w3.org/2000/svg">
<path d="M21 14.5C21.7956 14.5 22.5587 14.8161 23.1213 15.3787C23.6839 15.9413 24 16.7044 24 17.5C24 18.2956 23.6839 19.0587 23.1213 19.6213C22.5587 20.1839 21.7956 20.5 21 20.5C20.2044 20.5 19.4413 20.1839 18.8787 19.6213C18.3161 19.0587 18 18.2956 18 17.5C18 16.7044 18.3161 15.9413 18.8787 15.3787C19.4413 14.8161 20.2044 14.5 21 14.5ZM21 10C26 10 30.27 13.11 32 17.5C30.27 21.89 26 25 21 25C16 25 11.73 21.89 10 17.5C11.73 13.11 16 10 21 10ZM12.18 17.5C12.9883 19.1503 14.2433 20.5407 15.8025 21.5133C17.3617 22.4858 19.1624 23.0013 21 23.0013C22.8376 23.0013 24.6383 22.4858 26.1975 21.5133C27.7567 20.5407 29.0117 19.1503 29.82 17.5C29.0117 15.8497 27.7567 14.4593 26.1975 13.4867C24.6383 12.5142 22.8376 11.9987 21 11.9987C19.1624 11.9987 17.3617 12.5142 15.8025 13.4867C14.2433 14.4593 12.9883 15.8497 12.18 17.5Z" fill="#4F4F4E"/>
</svg>
