<svg width="266" height="255" viewBox="0 0 266 255" fill="none" xmlns="http://www.w3.org/2000/svg">
<path opacity="0.41" d="M259.133 216.124C258.815 216.759 258.497 217.357 258.179 217.967C253.951 225.921 248.426 233.665 240.377 237.676C229.76 243.004 217.108 240.855 205.409 238.878C183.615 235.184 161.305 232.482 139.466 235.903C106.819 240.989 75.3417 259.7 42.828 253.895C31.3912 251.841 20.6907 246.83 11.7893 239.361C8.43873 236.538 5.31706 233.321 3.33343 229.418C1.20993 225.342 0.466074 220.72 0.173616 216.124C0.173616 215.761 0.122754 215.392 0.110038 215.036C-0.616022 200.225 2.25927 185.458 8.4896 172.001C13.7538 160.658 21.4468 150.111 23.3541 137.757C25.8972 121.412 17.8419 105.129 18.3442 88.5991C18.6751 80.4989 21.0203 72.609 25.1676 65.6431C29.3149 58.6773 35.1334 52.8554 42.0968 48.704C51.9641 42.982 63.5798 40.9284 74.1528 36.5416C82.1987 33.1894 89.6127 28.4869 96.0744 22.6371C101.281 17.9578 105.045 10.926 110.78 6.99058C121.124 -0.0919935 141.17 -2.5461 152.233 3.17591C158.368 6.3548 162.863 11.8861 167.695 16.8261C180.264 29.6561 195.879 39.0084 210.038 50.0646C224.196 61.1208 237.459 74.7645 242.342 92.0259C247.32 109.612 243.028 128.901 248.445 146.334C253.023 161.103 264.34 173.736 265.611 189.147C266.399 198.525 263.354 207.738 259.133 216.124Z" fill="#93EBFF" fill-opacity="0.24"/>
<path opacity="0.55" d="M259.133 216.124C258.815 216.759 258.497 217.357 258.179 217.967C253.951 225.921 248.426 233.665 240.377 237.676C229.76 243.004 217.108 240.855 205.409 238.878C183.615 235.184 161.305 232.482 139.466 235.903C106.819 240.989 75.3418 259.7 42.8281 253.895C31.3913 251.841 20.6908 246.83 11.7894 239.361C8.43883 236.538 5.31715 233.321 3.33352 229.418C1.21003 225.342 0.466164 220.72 0.173706 216.124H259.133Z" fill="#8FA1FF"/>
<path d="M30.7736 233.747C33.4884 236.805 37.9834 237.378 42.0651 237.676C61.1167 239.08 80.2495 238.978 99.2851 237.371C106.279 236.78 113.304 235.979 120.234 234.745C128.645 233.245 136.955 231.096 145.455 230.263C172.063 227.657 199.147 238.007 225.328 232.597C228.348 231.961 231.813 230.689 232.582 227.688C233.263 225.075 231.349 222.348 228.914 221.172C226.479 219.995 223.669 220.002 220.967 220.027C165.253 220.51 109.54 221.21 53.827 221.477C49.3765 221.477 44.5764 220.924 40.3167 222.475C36.769 223.772 26.8382 229.322 30.7736 233.747Z" fill="url(#paint0_linear_12_486)"/>
<path d="M91.4969 31.7986H49.4719C41.1536 31.7986 34.4103 38.5419 34.4103 46.8602V211.972C34.4103 220.29 41.1536 227.033 49.4719 227.033H91.4969C99.8152 227.033 106.558 220.29 106.558 211.972V46.8602C106.558 38.5419 99.8152 31.7986 91.4969 31.7986Z" fill="#8FA1FF"/>
<path d="M91.4969 31.7986H49.4719C41.1536 31.7986 34.4103 38.5419 34.4103 46.8602V211.972C34.4103 220.29 41.1536 227.033 49.4719 227.033H91.4969C99.8152 227.033 106.558 220.29 106.558 211.972V46.8602C106.558 38.5419 99.8152 31.7986 91.4969 31.7986Z" fill="url(#paint1_linear_12_486)"/>
<path d="M118.714 31.7986H61.7615C52.4319 31.7986 44.8688 39.3617 44.8688 48.6913V210.141C44.8688 219.47 52.4319 227.033 61.7615 227.033H118.714C128.044 227.033 135.607 219.47 135.607 210.141V48.6913C135.607 39.3617 128.044 31.7986 118.714 31.7986Z" fill="#8FA1FF"/>
<path d="M52.3011 46.5042H129.605V212.029H52.3011V46.5042Z" fill="white"/>
<path d="M143.72 180.628L143.987 217.649L140.083 218.018C140.083 218.018 135.028 201.85 135.632 199.422C136.236 196.993 137.54 191.239 137.54 191.239C137.54 191.239 133.725 183.966 133.852 181.702C133.978 180.272 134.504 178.905 135.372 177.761L143.72 180.628Z" fill="#F3BD8F"/>
<path d="M127.45 180.628C127.45 180.628 127.45 186.49 126.846 187.901C126.242 189.313 110.068 214.985 110.068 214.985L107.69 212.913C107.69 212.913 112.09 194.978 115.319 191.341L118.549 187.704L119.045 179.916L127.45 180.628Z" fill="#F3BD8F"/>
<path d="M121.633 90.9134C121.48 89.1968 120.787 87.6455 121.124 85.8272C121.696 82.7182 124.621 80.4294 127.717 79.7936C130.813 79.1579 134.037 79.8826 137.019 80.938C139.016 81.5619 140.873 82.5681 142.486 83.9008C146.422 87.4357 146.886 93.2976 148.418 98.3647C149.016 100.329 149.893 102.345 151.597 103.521C153.829 105.085 156.836 104.792 159.43 105.606C161.063 106.152 162.514 107.137 163.625 108.452C164.737 109.767 165.465 111.363 165.73 113.064C166.156 116.071 165.19 119.562 167.142 121.889C168.159 123.103 169.806 123.72 170.658 125.067C171.082 125.824 171.356 126.655 171.465 127.515C171.955 130.122 172.101 133.32 169.984 134.89C168.913 135.541 167.688 135.892 166.436 135.907C163.403 136.174 160.275 136.181 157.402 135.195C154.82 134.305 152.576 132.652 150.376 131.05C145.862 127.725 141.329 124.387 137.254 120.534C134.711 118.137 132.333 115.658 129.624 113.452C127.812 111.977 126.446 109.453 124.646 108.187C123.718 107.552 122.586 107.552 121.671 106.687C120.95 105.981 120.415 105.107 120.113 104.144C119.433 101.938 119.821 99.56 120.38 97.3284C120.857 95.4211 121.792 93.1895 121.652 91.1995L121.633 90.9134Z" fill="#3E3E54"/>
<path d="M141.399 94.6263C142.252 96.6938 142.959 98.8182 143.516 100.984C144.152 103.127 145.017 105.269 146.523 106.929C147.332 107.692 148.093 108.505 148.8 109.364C150.179 111.366 150.02 114.1 149.168 116.357C148.749 117.47 148.011 118.652 146.835 118.837C145.659 119.021 144.686 118.201 143.84 117.413L134.768 109.148C133.497 108.107 132.394 106.876 131.5 105.498C130.324 103.457 130.12 100.978 130.381 98.6318C130.539 96.5971 131.194 94.6323 132.288 92.9097C133.166 91.6382 135.385 89.3557 137.133 89.858C139.066 90.462 140.623 92.9797 141.399 94.6263Z" fill="url(#paint2_linear_12_486)"/>
<path d="M148.068 144.331L169.749 144.045L177.702 168.694L187.334 202.639H165.838L148.068 144.331ZM175.127 169.502L167.797 146.785L151.692 147.002L167.828 199.975H183.767L175.127 169.502Z" fill="#8FA1FF"/>
<path d="M179.489 135.253H213.439V197.095H179.489V135.253Z" fill="#8FA1FF"/>
<path d="M179.489 135.253H213.439V197.095H179.489V135.253Z" fill="url(#paint3_linear_12_486)"/>
<path d="M206.624 135.405V153.747L194.347 196.796H211.017L214.66 183.756L213.446 135.253L206.624 135.405Z" fill="url(#paint4_linear_12_486)"/>
<path d="M214.169 140.187L240.819 147.718L227.1 196.266L200.449 188.735L214.169 140.187Z" fill="#8FA1FF"/>
<path d="M214.17 140.114L240.821 147.645L227.102 196.193L200.451 188.661L214.17 140.114Z" fill="url(#paint5_linear_12_486)"/>
<path d="M181.739 220.707C181.131 219.702 180.934 218.501 181.189 217.353C181.443 216.206 182.13 215.201 183.106 214.547C184.081 213.892 185.272 213.639 186.43 213.839C187.588 214.039 188.624 214.677 189.324 215.621C189.692 216.118 189.956 216.684 190.099 217.286C190.242 217.888 190.261 218.512 190.156 219.122C190.051 219.731 189.823 220.313 189.486 220.832C189.149 221.35 188.711 221.795 188.197 222.14C187.684 222.484 187.106 222.721 186.498 222.836C185.89 222.95 185.265 222.94 184.662 222.806C184.058 222.672 183.487 222.417 182.985 222.056C182.483 221.696 182.059 221.237 181.739 220.707ZM187.092 217.115C186.886 216.796 186.59 216.545 186.24 216.396C185.891 216.246 185.505 216.204 185.132 216.276C184.758 216.347 184.415 216.528 184.145 216.796C183.876 217.063 183.692 217.406 183.618 217.778C183.545 218.151 183.584 218.538 183.731 218.888C183.878 219.238 184.127 219.537 184.445 219.745C184.763 219.953 185.135 220.061 185.515 220.056C185.895 220.051 186.265 219.932 186.577 219.716C186.984 219.434 187.264 219.005 187.36 218.52C187.456 218.034 187.36 217.531 187.092 217.115Z" fill="#2E2E3F"/>
<path d="M215.226 220.707C214.598 219.701 214.386 218.489 214.635 217.329C214.884 216.169 215.574 215.151 216.56 214.491C217.546 213.83 218.75 213.579 219.917 213.79C221.085 214.001 222.125 214.658 222.817 215.621C223.445 216.628 223.657 217.839 223.408 219C223.159 220.16 222.468 221.177 221.483 221.838C220.497 222.498 219.293 222.75 218.125 222.539C216.958 222.328 215.918 221.671 215.226 220.707ZM220.579 217.115C220.372 216.796 220.075 216.546 219.725 216.397C219.376 216.248 218.99 216.207 218.616 216.279C218.243 216.351 217.9 216.533 217.631 216.802C217.362 217.07 217.179 217.413 217.106 217.786C217.033 218.159 217.073 218.545 217.221 218.895C217.37 219.245 217.619 219.543 217.937 219.751C218.256 219.958 218.629 220.065 219.009 220.059C219.389 220.053 219.759 219.933 220.07 219.716C220.475 219.433 220.755 219.003 220.85 218.518C220.945 218.033 220.848 217.53 220.579 217.115Z" fill="#2E2E3F"/>
<path d="M148.176 127.839C148.34 128.369 148.576 128.874 148.876 129.34C149.48 130.06 150.247 130.627 151.114 130.993C154.521 132.747 159.741 134.629 162.615 137.16C162.97 137.436 163.263 137.785 163.473 138.183C163.887 139.08 163.473 140.091 163.092 141.025C162.919 141.536 162.614 141.993 162.208 142.348C161.471 142.882 160.447 142.653 159.576 142.392C156.207 141.393 152.894 140.213 149.651 138.857C147.841 138.129 146.083 137.28 144.387 136.314C143.739 136.03 143.178 135.578 142.763 135.005C142.349 134.431 142.095 133.757 142.028 133.053C141.413 129.792 141.002 126.497 140.795 123.185L140.159 115.397C140.038 113.897 135.48 108.664 136.853 107.628C139.536 105.612 143.453 111.099 144.069 112.225C145.792 115.391 147.502 125.919 148.176 127.839Z" fill="#8FA1FF"/>
<path d="M148.176 127.839C148.34 128.369 148.576 128.874 148.876 129.34C149.48 130.06 150.247 130.627 151.114 130.993C154.521 132.747 159.741 134.629 162.615 137.16C162.97 137.436 163.263 137.785 163.473 138.183C163.887 139.08 163.473 140.091 163.092 141.025C162.919 141.536 162.614 141.993 162.208 142.348C161.471 142.882 160.447 142.653 159.576 142.392C156.207 141.393 152.894 140.213 149.651 138.857C147.841 138.129 146.083 137.28 144.387 136.314C143.739 136.03 143.178 135.578 142.763 135.005C142.349 134.431 142.095 133.757 142.028 133.053C141.413 129.792 141.002 126.497 140.795 123.185L140.159 115.397C140.038 113.897 135.48 108.664 136.853 107.628C139.536 105.612 143.453 111.099 144.069 112.225C145.792 115.391 147.502 125.919 148.176 127.839Z" fill="url(#paint6_linear_12_486)"/>
<path d="M146.059 177.983C146.111 178.613 145.955 179.243 145.614 179.776C145.253 180.143 144.794 180.399 144.292 180.514C141.749 181.315 120.132 182.128 116.095 181.378C114.525 175.58 114.468 169.451 115.256 163.494C115.567 161.173 116.025 158.808 117.252 156.818C117.562 156.272 117.998 155.808 118.524 155.464C119.301 155.092 120.163 154.932 121.022 155C127.253 154.936 133.592 154.79 139.784 155.674C141.692 155.947 142.728 156.551 143.402 158.439C144.373 161.418 145.05 164.484 145.424 167.595C145.91 171.035 146.123 174.509 146.059 177.983Z" fill="#2E2E3F"/>
<path d="M116.108 181.378L117.074 181.543C117.305 181.423 117.53 181.292 117.748 181.149C118.279 180.854 118.727 180.43 119.051 179.916C119.286 179.391 119.399 178.819 119.382 178.244C119.56 173.444 118.645 168.567 119.624 163.862C119.973 162.171 120.673 160.645 121.169 159.018C121.626 157.53 120.609 156.64 119.408 155.769C119.197 155.61 118.971 155.471 118.734 155.356L118.517 155.464C117.988 155.804 117.552 156.269 117.246 156.818C116.012 158.808 115.555 161.173 115.243 163.494C114.48 169.445 114.531 175.58 116.108 181.378Z" fill="url(#paint7_linear_12_486)"/>
<path d="M131.436 103.038C131.466 104.009 131.851 104.937 132.517 105.644C133.509 106.534 135.016 106.484 136.249 106.979C136.407 107.033 136.551 107.122 136.669 107.24C136.759 107.349 136.825 107.478 136.859 107.615C137.015 108.265 136.964 108.947 136.713 109.567C136.333 110.492 135.756 111.323 135.021 112.002C134.286 112.681 133.412 113.191 132.46 113.496C130.548 114.091 128.523 114.233 126.547 113.909C125.876 113.869 125.224 113.676 124.64 113.344C124.028 112.88 123.542 112.27 123.228 111.57C122.841 110.932 122.584 110.223 122.472 109.484C122.42 109.114 122.465 108.737 122.602 108.39C122.739 108.042 122.964 107.736 123.254 107.501C123.526 107.332 123.819 107.197 124.125 107.1C124.603 106.913 125.063 106.681 125.498 106.407C125.942 106.181 126.29 105.801 126.477 105.339C126.549 104.944 126.532 104.538 126.426 104.15C126.185 102.841 126.185 101.499 126.426 100.189C126.484 99.8017 126.604 99.4259 126.782 99.0768C126.947 98.7775 127.179 98.52 127.458 98.324C127.738 98.128 128.059 97.9986 128.397 97.9458C128.734 97.893 129.079 97.9182 129.406 98.0195C129.732 98.1208 130.031 98.2954 130.279 98.53C131.532 99.6871 131.265 101.518 131.436 103.038Z" fill="#F3BD8F"/>
<path d="M137.368 96.0568C137.444 96.9488 137.369 97.8473 137.146 98.7143C136.51 100.774 134.329 102.103 132.174 102.192C131.467 102.248 130.758 102.114 130.12 101.804C129.756 101.591 129.419 101.335 129.116 101.041C127.609 99.6616 126.223 98.015 125.765 96.025C125.607 95.2685 125.541 94.4958 125.568 93.7235C125.549 92.589 125.743 91.4611 126.14 90.3983C126.544 89.4546 127.186 88.6318 128.003 88.01C128.819 87.3882 129.783 86.9888 130.801 86.8507C132.892 86.5837 134.844 87.6391 136.37 88.9488C137.133 89.5845 137.006 90.9006 137.114 91.8797C137.228 93.2721 137.324 94.6644 137.368 96.0568Z" fill="#F3BD8F"/>
<path d="M117.589 157.308C118.556 157.969 119.66 158.403 120.819 158.579C127.003 159.949 133.414 159.939 139.593 158.547C140.865 158.249 142.321 157.778 142.88 156.57C143.133 155.908 143.229 155.196 143.16 154.491C143.016 147.841 142.868 141.186 142.715 134.528C142.55 126.962 142.384 119.371 141.272 111.888C140.944 110.343 140.332 108.872 139.466 107.552C138.741 106.566 135.473 107.094 132.746 105.326C131.996 104.843 133.623 107.348 131.176 108.384C128.728 109.421 125.81 104.411 124.258 106.433C123.387 107.564 120.634 106.725 119.763 107.85C119.064 108.753 118.632 110.667 118.358 112.968C117.773 117.864 117.92 124.508 117.792 126.924C117.335 135.38 118.047 146.169 115.249 153.156C114.652 154.669 116.324 156.309 117.589 157.308Z" fill="#8FA1FF"/>
<path d="M117.589 157.308C118.556 157.969 119.66 158.403 120.819 158.579C122.363 158.921 123.925 159.178 125.498 159.348L125.943 159.291C124.792 155.54 124.735 151.56 124.767 147.637C124.792 145.476 124.828 143.31 124.875 141.14C124.875 139.773 124.951 138.336 125.657 137.166C126.363 135.996 127.965 135.259 129.141 135.965C127.119 134.744 125.466 129.607 124.64 127.49C123.448 124.434 122.614 121.251 122.154 118.004C121.836 115.779 121.957 111.856 118.543 112.918L118.358 112.981C117.773 117.877 117.92 124.521 117.792 126.937C117.335 135.392 118.047 146.182 115.249 153.169C114.652 154.669 116.324 156.309 117.589 157.308Z" fill="url(#paint8_linear_12_486)"/>
<path d="M140.464 217.592C140.269 217.61 140.087 217.701 139.956 217.846C139.878 218.004 139.847 218.18 139.867 218.355C139.867 219.423 139.18 220.409 139.231 221.47C139.231 222.43 139.867 223.32 139.771 224.274C139.771 224.465 139.721 224.681 139.854 224.815C139.943 224.888 140.051 224.935 140.166 224.948C142.87 225.461 145.585 225.912 148.31 226.302C148.813 226.433 149.347 226.374 149.81 226.137C150.022 225.97 150.186 225.751 150.287 225.501C151.025 223.994 150.37 222.157 149.372 220.816C146.905 217.56 144.54 216.772 140.464 217.592Z" fill="#2E2E3F"/>
<path d="M102.858 217.427C103.047 218.29 103.536 219.058 104.238 219.595C105.972 221.191 107.951 222.499 110.1 223.467C110.535 223.709 111.034 223.816 111.53 223.772C111.902 223.659 112.228 223.428 112.457 223.113C112.687 222.799 112.807 222.419 112.802 222.03C112.773 221.248 112.569 220.484 112.204 219.792C111.168 217.389 110.443 213.86 107.671 212.913C105.268 212.099 102.597 215.036 102.858 217.427Z" fill="#2E2E3F"/>
<path d="M140.414 217.592C140.218 217.61 140.037 217.701 139.905 217.846C139.827 218.004 139.796 218.18 139.816 218.355C139.816 219.423 139.129 220.409 139.18 221.47C139.212 222.43 139.816 223.32 139.721 224.274C139.721 224.465 139.67 224.681 139.803 224.815C139.892 224.888 140 224.935 140.115 224.948C142.819 225.461 145.534 225.912 148.259 226.302C148.763 226.433 149.297 226.374 149.76 226.137C149.971 225.97 150.135 225.751 150.236 225.501C150.974 223.994 150.319 222.157 149.321 220.816C146.854 217.56 144.489 216.772 140.414 217.592Z" fill="url(#paint9_linear_12_486)"/>
<path d="M104.238 219.595C105.972 221.191 107.951 222.499 110.1 223.467C110.535 223.709 111.034 223.816 111.53 223.772" fill="url(#paint10_linear_12_486)"/>
<path d="M122.866 127.261C122.775 127.936 122.847 128.622 123.076 129.263C123.464 130.154 124.348 130.688 125.212 131.171L144.286 141.979C145.182 142.488 146.136 143.06 146.517 144.02C147.356 146.15 144.724 148.102 142.442 148.273C140.045 148.451 137.68 147.726 135.41 146.944C128.235 144.469 121.306 141.333 114.709 137.579C113.893 137.277 113.208 136.698 112.775 135.943C112.341 135.188 112.187 134.304 112.338 133.447C112.32 128.176 112.724 122.912 113.546 117.705C113.997 114.857 114.639 111.888 116.547 109.72C119.382 106.503 124.576 106.401 125.021 111.131C125.556 116.459 123.229 121.952 122.866 127.261Z" fill="#8FA1FF"/>
<path d="M122.866 127.261C122.775 127.936 122.847 128.622 123.076 129.263C123.464 130.154 124.348 130.688 125.212 131.171L144.286 141.979C145.182 142.488 146.136 143.06 146.517 144.02C147.356 146.15 144.724 148.102 142.442 148.273C140.045 148.451 137.68 147.726 135.41 146.944C128.235 144.469 121.306 141.333 114.709 137.579C113.893 137.277 113.208 136.698 112.775 135.943C112.341 135.188 112.187 134.304 112.338 133.447C112.32 128.176 112.724 122.912 113.546 117.705C113.997 114.857 114.639 111.888 116.547 109.72C119.382 106.503 124.576 106.401 125.021 111.131C125.556 116.459 123.229 121.952 122.866 127.261Z" fill="url(#paint11_linear_12_486)"/>
<path d="M149.016 143.746C150.393 143.746 151.719 144.266 152.729 145.202C153.219 145.68 153.55 146.297 153.675 146.97C153.8 147.643 153.714 148.338 153.428 148.96C153.222 149.377 152.865 149.7 152.43 149.863C152.047 149.968 151.641 149.954 151.266 149.825C150.173 149.5 149.302 148.661 148.246 148.235C147.991 148.106 147.698 148.073 147.42 148.14C147.243 148.23 147.075 148.336 146.918 148.458C146.697 148.582 146.449 148.651 146.196 148.66C145.943 148.668 145.691 148.617 145.462 148.508C145.006 148.286 144.623 147.94 144.355 147.51C143.968 146.97 143.781 146.311 143.828 145.647C143.936 144.624 144.527 144.3 145.411 144.192C146.599 143.951 147.804 143.802 149.016 143.746Z" fill="#F3BD8F"/>
<path d="M166.754 140.428C167.266 141.058 167.615 141.805 167.771 142.602C167.857 142.976 167.844 143.366 167.733 143.734C167.577 144.091 167.317 144.394 166.987 144.602C166.658 144.811 166.273 144.916 165.883 144.904C165.104 144.868 164.346 144.634 163.683 144.223C162.455 143.511 161.28 142.71 160.167 141.826C159.93 141.669 159.716 141.478 159.532 141.261C159.327 140.923 159.243 140.526 159.294 140.134C159.345 139.742 159.527 139.38 159.811 139.105C161.655 137.262 165.387 138.73 166.754 140.428Z" fill="#F3BD8F"/>
<path d="M170.359 154.644H246.995L229.391 202.626H184.015L170.359 154.644ZM243.143 157.333H173.919L186.043 199.93H227.509L243.143 157.333Z" fill="#8FA1FF"/>
<path d="M151.146 154.644H229.092L211.481 202.626H166.105L151.146 154.644ZM225.246 157.333H156.016L168.14 199.93H209.637L225.246 157.333Z" fill="#8FA1FF"/>
<path d="M165.883 216.041H218.494V213.352H168.579V201.278H165.883V216.041Z" fill="#8FA1FF"/>
<path d="M183.494 216.041H226.326V213.352H186.183V201.278H183.494V216.041Z" fill="#8FA1FF"/>
<path d="M169.99 218.158C169.99 217.254 170.258 216.37 170.761 215.618C171.263 214.866 171.978 214.28 172.813 213.934C173.649 213.588 174.568 213.498 175.455 213.675C176.342 213.852 177.157 214.288 177.796 214.928C178.435 215.568 178.87 216.383 179.045 217.27C179.221 218.157 179.13 219.077 178.783 219.912C178.436 220.747 177.849 221.46 177.096 221.962C176.344 222.463 175.459 222.731 174.555 222.729C173.344 222.726 172.184 222.243 171.328 221.386C170.473 220.53 169.992 219.369 169.99 218.158ZM172.679 218.158C172.673 218.538 172.78 218.911 172.987 219.229C173.195 219.548 173.492 219.797 173.842 219.946C174.192 220.094 174.578 220.134 174.951 220.062C175.324 219.989 175.666 219.807 175.935 219.538C176.204 219.27 176.386 218.927 176.458 218.554C176.531 218.181 176.491 217.795 176.342 217.445C176.194 217.095 175.945 216.798 175.626 216.591C175.308 216.383 174.935 216.276 174.555 216.282C174.06 216.291 173.588 216.491 173.238 216.841C172.888 217.191 172.687 217.663 172.679 218.158Z" fill="#2E2E3F"/>
<path d="M203.413 220.708C202.805 219.702 202.608 218.501 202.863 217.353C203.117 216.206 203.804 215.201 204.779 214.547C205.755 213.892 206.946 213.639 208.104 213.839C209.262 214.039 210.298 214.677 210.998 215.621C211.366 216.118 211.63 216.685 211.773 217.286C211.916 217.888 211.935 218.512 211.83 219.122C211.725 219.731 211.497 220.313 211.16 220.832C210.823 221.35 210.385 221.796 209.871 222.14C209.358 222.484 208.78 222.721 208.172 222.836C207.564 222.95 206.939 222.94 206.336 222.806C205.732 222.672 205.161 222.417 204.659 222.056C204.157 221.696 203.733 221.237 203.413 220.708ZM208.766 217.115C208.56 216.796 208.264 216.545 207.914 216.396C207.565 216.246 207.179 216.204 206.806 216.276C206.432 216.347 206.089 216.528 205.819 216.796C205.55 217.064 205.366 217.406 205.292 217.779C205.218 218.151 205.258 218.538 205.405 218.888C205.552 219.238 205.801 219.537 206.119 219.745C206.437 219.953 206.809 220.061 207.189 220.056C207.569 220.051 207.939 219.932 208.251 219.716C208.657 219.434 208.938 219.005 209.034 218.52C209.13 218.034 209.034 217.531 208.766 217.115Z" fill="#2E2E3F"/>
<path d="M155.889 164.257H240.975V166.285H155.889V164.257Z" fill="#8FA1FF"/>
<path d="M158.107 171.079H239.15V173.107H158.107V171.079Z" fill="#8FA1FF"/>
<path d="M160.333 177.901H236.524V179.929H160.333V177.901Z" fill="#8FA1FF"/>
<path d="M162.558 184.722H233.899V186.751H162.558V184.722Z" fill="#8FA1FF"/>
<path d="M164.777 191.538H231.266V193.566H164.777V191.538Z" fill="#8FA1FF"/>
<path d="M219.189 200.27L235.555 155.402L237.46 156.097L221.094 200.965L219.189 200.27Z" fill="#8FA1FF"/>
<path d="M198.866 199.743L211.9 155.484L213.846 156.057L200.811 200.316L198.866 199.743Z" fill="#8FA1FF"/>
<path d="M190.486 200.295L192 155.123L194.027 155.191L192.513 200.363L190.486 200.295Z" fill="#8FA1FF"/>
<path d="M166.745 156.977L168.683 156.38L182.317 200.644L180.379 201.241L166.745 156.977Z" fill="#8FA1FF"/>
<path d="M133.153 89.2222C134.857 90.2394 136.968 90.0296 138.964 89.7817C138.77 88.601 138.175 87.5234 137.279 86.7299C136.646 86.1188 135.904 85.6315 135.092 85.2931C133.98 84.8417 131.023 84.2631 130.292 85.6554C129.694 86.7935 132.295 88.7135 133.153 89.2222Z" fill="#3E3E54"/>
<path d="M96.8118 215.31H85.692C83.7959 215.31 82.2589 216.847 82.2589 218.743V218.749C82.2589 220.645 83.7959 222.183 85.692 222.183H96.8118C98.7079 222.183 100.245 220.645 100.245 218.749V218.743C100.245 216.847 98.7079 215.31 96.8118 215.31Z" fill="url(#paint12_linear_12_486)"/>
<defs>
<linearGradient id="paint0_linear_12_486" x1="131.691" y1="132.105" x2="131.087" y2="284.896" gradientUnits="userSpaceOnUse">
<stop offset="0.01"/>
<stop offset="0.13" stop-opacity="0.69"/>
<stop offset="1" stop-opacity="0"/>
</linearGradient>
<linearGradient id="paint1_linear_12_486" x1="-18.4801" y1="184.913" x2="172.508" y2="65.7746" gradientUnits="userSpaceOnUse">
<stop offset="0.01"/>
<stop offset="0.13" stop-opacity="0.69"/>
<stop offset="1" stop-opacity="0"/>
</linearGradient>
<linearGradient id="paint2_linear_12_486" x1="143.542" y1="90.0615" x2="132.632" y2="140.841" gradientUnits="userSpaceOnUse">
<stop offset="0.01"/>
<stop offset="0.13" stop-opacity="0.69"/>
<stop offset="1" stop-opacity="0"/>
</linearGradient>
<linearGradient id="paint3_linear_12_486" x1="188.377" y1="212.563" x2="204.138" y2="122.219" gradientUnits="userSpaceOnUse">
<stop offset="0.01"/>
<stop offset="0.13" stop-opacity="0.69"/>
<stop offset="1" stop-opacity="0"/>
</linearGradient>
<linearGradient id="paint4_linear_12_486" x1="265.764" y1="175.141" x2="160.873" y2="159.685" gradientUnits="userSpaceOnUse">
<stop offset="0.01"/>
<stop offset="0.13" stop-opacity="0.69"/>
<stop offset="1" stop-opacity="0"/>
</linearGradient>
<linearGradient id="paint5_linear_12_486" x1="235.85" y1="200.804" x2="209.173" y2="143.609" gradientUnits="userSpaceOnUse">
<stop offset="0.01"/>
<stop offset="0.13" stop-opacity="0.69"/>
<stop offset="1" stop-opacity="0"/>
</linearGradient>
<linearGradient id="paint6_linear_12_486" x1="142.639" y1="136.785" x2="147.185" y2="129.054" gradientUnits="userSpaceOnUse">
<stop offset="0.01"/>
<stop offset="0.13" stop-opacity="0.69"/>
<stop offset="1" stop-opacity="0"/>
</linearGradient>
<linearGradient id="paint7_linear_12_486" x1="121.283" y1="168.446" x2="114.773" y2="168.446" gradientUnits="userSpaceOnUse">
<stop offset="0.01"/>
<stop offset="0.13" stop-opacity="0.69"/>
<stop offset="1" stop-opacity="0"/>
</linearGradient>
<linearGradient id="paint8_linear_12_486" x1="94.4149" y1="137.649" x2="155.513" y2="134.203" gradientUnits="userSpaceOnUse">
<stop offset="0.01"/>
<stop offset="0.13" stop-opacity="0.69"/>
<stop offset="1" stop-opacity="0"/>
</linearGradient>
<linearGradient id="paint9_linear_12_486" x1="150.542" y1="221.826" x2="139.167" y2="221.826" gradientUnits="userSpaceOnUse">
<stop offset="0.01"/>
<stop offset="0.13" stop-opacity="0.69"/>
<stop offset="1" stop-opacity="0"/>
</linearGradient>
<linearGradient id="paint10_linear_12_486" x1="111.53" y1="221.693" x2="104.238" y2="221.693" gradientUnits="userSpaceOnUse">
<stop offset="0.01"/>
<stop offset="0.13" stop-opacity="0.69"/>
<stop offset="1" stop-opacity="0"/>
</linearGradient>
<linearGradient id="paint11_linear_12_486" x1="121.181" y1="147.498" x2="130.731" y2="129.009" gradientUnits="userSpaceOnUse">
<stop offset="0.01"/>
<stop offset="0.13" stop-opacity="0.69"/>
<stop offset="1" stop-opacity="0"/>
</linearGradient>
<linearGradient id="paint12_linear_12_486" x1="91.3505" y1="195.327" x2="91.128" y2="250.214" gradientUnits="userSpaceOnUse">
<stop offset="0.01"/>
<stop offset="0.13" stop-opacity="0.69"/>
<stop offset="1" stop-opacity="0"/>
</linearGradient>
</defs>
</svg>
