<svg width="21" height="20" viewBox="0 0 21 20" fill="none" xmlns="http://www.w3.org/2000/svg">
<path id="Union" fill-rule="evenodd" clip-rule="evenodd" d="M18.0199 3.76776C16.3556 1.88399 13.4173 1.88399 11.7531 3.76776L11.0621 4.54993C10.9198 4.71108 10.7151 4.80337 10.5001 4.80337C10.285 4.80337 10.0803 4.71108 9.93798 4.54993L9.24698 3.76776C7.58276 1.88399 4.64446 1.88399 2.98025 3.76777C1.58341 5.34889 1.58341 7.72298 2.98025 9.3041L10.2491 17.5319C10.3824 17.6828 10.6177 17.6828 10.751 17.5319L18.0199 9.3041C19.4167 7.72298 19.4167 5.34889 18.0199 3.76776ZM19.144 2.77464C16.8827 0.215035 12.8903 0.215032 10.629 2.77464L10.5001 2.92058L10.3711 2.77464C8.10984 0.215032 4.11738 0.215035 1.8561 2.77464C-0.041878 4.92302 -0.0418781 8.14885 1.8561 10.2972L9.12494 18.525C9.8553 19.3517 11.1448 19.3517 11.8752 18.525L19.144 10.2972C21.042 8.14885 21.042 4.92302 19.144 2.77464Z" fill="#6066FC"/>
</svg>
